# xmcd
#
# Track frame offsets: 
#        150
#        2398
#        19081
#        34145
#        57449
#        78581
#        94816
#
# Disc length: 1540 seconds
#
# Revision: 0
# Processed by: cddbd v1.5.1PL0 Copyright (c) Steve Scherf et al.
# Submitted via: ExactAudioCopy v0.95b2
#
DISCID=4a060207
DTITLE=Various Artist - The Sounds of New Orleans
DYEAR=1900
DGENRE=Blues
TTITLE0=Cyril Neville/Introduction
TTITLE1=The Wild Magnolias/Street Parade
TTITLE2=The Wild Magnolias/Get Out of the Way
TTITLE3=Cyril Neville/Tipitina's
TTITLE4=Cyril Neville/2nd Line Soca
TTITLE5=Rockin' Dopsie, Jr. and Cyril Neville/Let's Go Zydeco
TTITLE6=Rockin' Dopsie, Jr./Zydeco Party
EXTD=
EXTT0=
EXTT1=
EXTT2=
EXTT3=
EXTT4=
EXTT5=
EXTT6=
PLAYORDER=
